<svg width="52" height="43" viewBox="0 0 52 43" fill="none" xmlns="http://www.w3.org/2000/svg">
    <g clip-path="url(#clip0_876_1559)">
        <path fill-rule="evenodd" clip-rule="evenodd"
            d="M26.076 13.6443L26.5387 15.0655L28.0452 15.0623L26.8244 15.9374L27.293 17.3566L26.076 16.4762L24.859 17.3566L25.3275 15.9374L24.1066 15.0623L25.6133 15.0655L26.076 13.6443ZM32.7505 16.7073L32.2883 15.286L31.8256 16.7073L30.3186 16.704L31.5398 17.5791L31.0708 18.9983L32.2883 18.1179L33.5053 18.9983L33.0367 17.5791L34.2575 16.704L32.7505 16.7073ZM36.8438 19.8006L37.3065 21.2219L38.8131 21.2187L37.5923 22.0937L38.0608 23.513L36.8438 22.6326L35.6268 23.513L36.0953 22.0937L34.8746 21.2187L36.3811 21.2219L36.8438 19.8006ZM38.9628 27.3783L38.5006 25.957L38.0379 27.3783L36.5309 27.375L37.7521 28.2501L37.2831 29.6694L38.5006 28.789L39.7176 29.6694L39.2486 28.2501L40.4698 27.375L38.9628 27.3783ZM37.3065 33.5346L36.8438 32.1134L36.3811 33.5346L34.8746 33.5314L36.0953 34.4065L35.6268 35.8257L36.8438 34.9453L38.0608 35.8257L37.5923 34.4065L38.8131 33.5314L37.3065 33.5346ZM20.3263 16.7073L19.8638 15.286L19.4012 16.7073L17.8943 16.704L19.1154 17.5791L18.6466 18.9983L19.8638 18.1179L21.0809 18.9983L20.6121 17.5791L21.8331 16.704L20.3263 16.7073ZM15.3081 19.8006L15.7706 21.2219L17.2775 21.2187L16.0565 22.0937L16.5253 23.513L15.3081 22.6326L14.0909 23.513L14.5597 22.0937L13.3387 21.2187L14.8456 21.2219L15.3081 19.8006ZM14.114 27.3783L13.6515 25.957L13.189 27.3783L11.6821 27.375L12.9031 28.2501L12.4344 29.6694L13.6515 28.789L14.8687 29.6694L14.3999 28.2501L15.6209 27.375L14.114 27.3783ZM15.3081 32.1134L15.7706 33.5346L17.2775 33.5314L16.0565 34.4065L16.5253 35.8257L15.3081 34.9453L14.0909 35.8257L14.5597 34.4065L13.3387 33.5314L14.8456 33.5346L15.3081 32.1134ZM20.3263 38.0493L19.8638 36.6282L19.4012 38.0493L17.8943 38.046L19.1154 38.9213L18.6466 40.3403L19.8638 39.46L21.0809 40.3403L20.6121 38.9213L21.8331 38.046L20.3263 38.0493ZM32.2883 36.6282L32.7505 38.0493L34.2575 38.046L33.0367 38.9213L33.5053 40.3403L32.2883 39.46L31.0708 40.3403L31.5398 38.9213L30.3186 38.046L31.8256 38.0493L32.2883 36.6282ZM26.5387 39.6911L26.076 38.2696L25.6133 39.6911L24.1066 39.6878L25.3275 40.5627L24.859 41.9821L26.076 41.1019L27.293 41.9821L26.8244 40.5627L28.0452 39.6878L26.5387 39.6911Z"
            fill="#FFCC00" />
        <path
            d="M37.0757 0.856094L3.22397 9.84508C1.44342 10.3179 0.386764 12.1316 0.863861 13.8962L5.6151 31.4686C6.09219 33.2331 7.92238 34.2803 9.70293 33.8075L43.5546 24.8185C45.3352 24.3457 46.3918 22.5319 45.9147 20.7674L41.1635 3.19499C40.6864 1.43044 38.8562 0.383286 37.0757 0.856094Z"
            fill="#9FB5EA" />
        <path
            d="M3.75488 10.1731H47.1445C48.8519 10.1731 50.2324 11.5442 50.2324 13.2307V39.6926C50.2323 41.3791 48.8519 42.7502 47.1445 42.7502H3.75488C2.04756 42.7502 0.667157 41.3791 0.666992 39.6926V13.2307C0.667033 11.5442 2.04748 10.1731 3.75488 10.1731Z"
            fill="#003399" stroke="#1544C5" stroke-width="0.5" />
        <path
            d="M30.1115 26.7719H29.0576V27.8798H28.1535V26.7719H27.0996V25.8899H28.1535V24.7609H29.0576V25.8899H30.1115V26.7719Z"
            fill="white" />
        <path
            d="M24.4484 23.5895C24.9374 23.5895 25.3291 23.693 25.6233 23.8999C25.9178 24.107 26.0651 24.408 26.0651 24.8032V24.9443C26.0651 25.3959 25.8135 25.7346 25.31 25.9604C25.6283 26.0686 25.8607 26.2145 26.0079 26.3979C26.1598 26.5814 26.2357 26.8072 26.2357 27.0753V27.2165C26.2357 27.6304 26.0697 27.9598 25.7372 28.2044C25.4097 28.449 24.9662 28.5713 24.4059 28.5713C23.86 28.5713 23.4185 28.4513 23.0815 28.2114C22.7492 27.9715 22.583 27.6399 22.583 27.2165V27.0753C22.583 26.8025 22.659 26.5696 22.8109 26.3767C22.9628 26.1839 23.1883 26.038 23.4873 25.9393C23.2405 25.8217 23.0577 25.6852 22.9391 25.53C22.8251 25.37 22.7682 25.1795 22.7682 24.9584V24.8173C22.7682 24.4269 22.9224 24.1258 23.231 23.9141C23.5443 23.6977 23.9501 23.5895 24.4484 23.5895ZM23.6226 27.2023C23.6226 27.367 23.6938 27.494 23.8362 27.5834C23.9834 27.6728 24.1851 27.7175 24.4413 27.7175C24.6787 27.7175 24.864 27.6751 24.997 27.5905C25.1297 27.5058 25.1961 27.3858 25.1961 27.2306V27.0683C25.1961 26.9271 25.1368 26.8096 25.0183 26.7155C24.9044 26.6214 24.7263 26.5414 24.4843 26.4756L24.1993 26.405C24.0285 26.452 23.8884 26.5296 23.7792 26.6378C23.6748 26.746 23.6226 26.8754 23.6226 27.026V27.2023ZM23.8006 25.0219C23.8006 25.2336 23.9715 25.3936 24.3132 25.5018L24.5481 25.5723C24.6954 25.5206 24.8118 25.4453 24.8973 25.3465C24.9874 25.243 25.0325 25.1325 25.0325 25.0149V24.8667C25.0325 24.735 24.9779 24.6338 24.8685 24.5633C24.7596 24.488 24.6099 24.4503 24.42 24.4503C24.2302 24.4503 24.0783 24.488 23.9644 24.5633C23.8552 24.6386 23.8006 24.7444 23.8006 24.8808V25.0219Z"
            fill="white" />
        <path
            d="M18.6284 24.3093C18.9085 24.2905 19.1862 24.22 19.4615 24.0976C19.7368 23.9706 19.9433 23.8248 20.081 23.6602H20.9212V27.6259H22.1032V28.5291H18.6996V27.6259H19.8816V24.8456C19.7487 24.9303 19.5731 25.0009 19.3547 25.0573C19.1363 25.1138 18.9275 25.1514 18.7281 25.1702L18.6284 24.3093Z"
            fill="white" />
        <path
            d="M41.7212 26.4615C41.7212 23.7214 43.9629 21.5 46.7277 21.5H50.9925C51.4022 21.5 51.7343 21.8291 51.7343 22.2351V30.688C51.7343 31.094 51.4022 31.4231 50.9925 31.4231H46.7277C43.9629 31.4231 41.7212 29.2017 41.7212 26.4615Z"
            fill="#1544C5" />
        <path opacity="0.35"
            d="M46.7533 28.9088C48.1358 28.9088 49.2566 27.7981 49.2566 26.428C49.2566 25.0579 48.1358 23.9473 46.7533 23.9473C45.3708 23.9473 44.25 25.0579 44.25 26.428C44.25 27.7981 45.3708 28.9088 46.7533 28.9088Z"
            fill="white" />
        <path fill-rule="evenodd" clip-rule="evenodd"
            d="M24.2828 13.6443L24.6879 14.8885L26.0071 14.8856L24.9382 15.6517L25.3483 16.8942L24.2828 16.1234L23.2174 16.8942L23.6278 15.6517L22.5589 14.8856L23.8781 14.8885L24.2828 13.6443ZM30.1263 16.3257L29.7212 15.0815L29.3165 16.3257L27.9972 16.3229L29.0661 17.089L28.6556 18.3314L29.7212 17.5606L30.7867 18.3314L30.3766 17.089L31.4455 16.3229L30.1263 16.3257ZM33.7093 19.0337L34.1144 20.2779L35.4336 20.275L34.3647 21.0411L34.7749 22.2836L33.7093 21.5128L32.6437 22.2836L33.0543 21.0411L31.9854 20.275L33.3046 20.2779L33.7093 19.0337ZM35.5646 25.6672L35.1595 24.4231L34.7548 25.6672L33.4356 25.6644L34.5045 26.4305L34.094 27.673L35.1595 26.9022L36.2251 27.673L35.8146 26.4305L36.8839 25.6644L35.5646 25.6672ZM34.1144 31.057L33.7093 29.8128L33.3046 31.057L31.9854 31.0542L33.0543 31.8203L32.6437 33.0627L33.7093 32.292L34.7749 33.0627L34.3647 31.8203L35.4336 31.0542L34.1144 31.057ZM19.2495 16.3257L18.8446 15.0815L18.4397 16.3257L17.1205 16.3229L18.1894 17.089L17.779 18.3314L18.8446 17.5606L19.9101 18.3314L19.4997 17.089L20.5686 16.3229L19.2495 16.3257ZM14.8564 19.0337L15.2614 20.2779L16.5805 20.275L15.5116 21.0411L15.922 22.2836L14.8564 21.5128L13.7909 22.2836L14.2013 21.0411L13.1324 20.275L14.4515 20.2779L14.8564 19.0337ZM13.8111 25.6672L13.4062 24.4231L13.0013 25.6672L11.6821 25.6644L12.751 26.4305L12.3407 27.673L13.4062 26.9022L14.4717 27.673L14.0613 26.4305L15.1303 25.6644L13.8111 25.6672ZM14.8564 29.8128L15.2614 31.057L16.5805 31.0542L15.5116 31.8203L15.922 33.0627L14.8564 32.292L13.7909 33.0627L14.2013 31.8203L13.1324 31.0542L14.4515 31.057L14.8564 29.8128ZM19.2495 35.0092L18.8446 33.765L18.4397 35.0092L17.1205 35.0063L18.1894 35.7724L17.779 37.0148L18.8446 36.2441L19.9101 37.0148L19.4997 35.7724L20.5686 35.0063L19.2495 35.0092ZM29.7212 33.765L30.1263 35.0092L31.4455 35.0063L30.3766 35.7724L30.7867 37.0148L29.7212 36.2441L28.6556 37.0148L29.0661 35.7724L27.9972 35.0063L29.3165 35.0092L29.7212 33.765ZM24.6879 36.4463L24.2828 35.2022L23.8781 36.4463L22.5589 36.4434L23.6278 37.2095L23.2174 38.452L24.2828 37.6813L25.3483 38.452L24.9382 37.2095L26.0071 36.4434L24.6879 36.4463Z"
            fill="#FFCC00" />
    </g>
    <defs>
        <clipPath id="clip0_876_1559">
            <rect width="51.7344" height="43" fill="white" />
        </clipPath>
    </defs>
</svg>